<?xml version="1.0" standalone="no"?>
<!DOCTYPE svg PUBLIC "-//W3C//DTD SVG 20010904//EN"
 "http://www.w3.org/TR/2001/REC-SVG-20010904/DTD/svg10.dtd">
<svg version="1.0" xmlns="http://www.w3.org/2000/svg"
 width="16px" height="16px" viewBox="0 0 225 225"
 preserveAspectRatio="xMidYMid meet">

<g transform="translate(0.000000,225) scale(0.10000,-0.100000)"
fill="#00a2c9" stroke="none">
<path d="M10 1125 l0 -1115 1115 0 1115 0 0 1115 0 1115 -1115 0 -1115 0 0
-1115z m697 644 c15 -5 40 -22 56 -37 23 -22 27 -34 27 -78 0 -45 -4 -57 -29
-82 l-30 -29 25 -14 c64 -34 71 -135 13 -195 -48 -49 -92 -60 -236 -56 l-63 2
0 250 0 250 104 0 c58 0 117 -5 133 -11z m516 -3 c54 -22 72 -51 72 -113 0
-48 -4 -58 -30 -82 l-31 -27 30 -19 c45 -29 62 -82 45 -136 -28 -86 -112 -122
-260 -111 l-69 5 0 248 0 249 105 0 c67 0 118 -5 138 -14z m557 -18 c0 -25
-28 -77 -110 -206 -61 -95 -110 -175 -110 -177 0 -3 50 -5 110 -5 l110 0 0
-40 0 -40 -170 0 -170 0 0 29 c0 27 100 199 202 349 l29 42 -111 0 -110 0 0
40 0 40 165 0 165 0 0 -32z m-915 -613 c0 -62 -4 -90 -12 -92 -10 -4 -13 19
-13 92 0 73 3 96 13 93 8 -3 12 -31 12 -93z m-212 78 c9 -9 -13 -34 -24 -27
-14 8 -11 34 4 34 8 0 17 -3 20 -7z m547 -7 c0 -8 -4 -17 -8 -20 -13 -8 -35
11 -28 23 10 16 36 14 36 -3z m-630 -16 c7 -14 8 -26 0 -39 -7 -13 -7 -22 0
-26 18 -11 11 -53 -12 -69 -12 -9 -37 -16 -55 -16 l-33 0 0 85 0 85 45 0 c34
0 47 -5 55 -20z m544 -2 c8 -13 8 -23 -2 -38 -7 -11 -8 -20 -3 -20 13 0 22
-30 16 -50 -3 -10 -19 -23 -34 -30 -30 -12 -78 -11 -73 3 1 4 2 41 2 83 l0 75
41 -3 c27 -2 46 -9 53 -20z m-464 -83 c0 -51 -3 -65 -15 -65 -12 0 -15 14 -15
65 0 51 3 65 15 65 12 0 15 -14 15 -65z m140 46 c20 -39 13 -51 -31 -51 -28 0
-39 -4 -36 -12 2 -7 18 -13 36 -13 23 0 31 -4 29 -15 -4 -21 -45 -24 -74 -6
-29 20 -33 70 -7 98 22 24 69 24 83 -1z m408 -43 c-2 -48 -7 -63 -18 -63 -11
0 -16 13 -18 49 -4 58 2 76 23 76 13 0 15 -11 13 -62z m130 50 c7 -7 12 -22
12 -35 0 -20 -5 -23 -36 -23 -45 0 -42 -24 4 -28 38 -4 42 -19 8 -28 -69 -17
-109 56 -64 114 13 15 60 16 76 0z m150 -57 c2 -48 0 -62 -10 -59 -8 3 -14 24
-16 52 -3 38 -6 47 -20 44 -13 -2 -18 -16 -20 -51 -2 -33 -7 -47 -18 -47 -11
0 -14 15 -14 64 l0 65 48 -2 47 -2 3 -64z m150 0 c2 -48 0 -62 -10 -59 -8 3
-14 24 -16 52 -3 38 -6 47 -20 44 -13 -2 -18 -16 -20 -51 -2 -33 -7 -47 -18
-47 -11 0 -14 15 -14 64 l0 65 48 -2 47 -2 3 -64z m140 57 c7 -7 12 -22 12
-35 0 -20 -5 -23 -40 -23 -31 0 -38 -3 -34 -15 4 -9 19 -15 40 -15 35 0 46
-13 18 -24 -44 -17 -94 13 -94 57 0 53 64 89 98 55z m-798 -43 c0 -10 -10 -15
-30 -15 -20 0 -30 5 -30 15 0 10 10 15 30 15 20 0 30 -5 30 -15z m-182 -152
c20 -5 22 -9 16 -42 -9 -49 -12 -53 -35 -41 -29 16 -122 14 -156 -4 -57 -29
-87 -137 -63 -225 23 -86 94 -122 191 -97 30 8 55 13 57 11 2 -1 5 -18 9 -38
5 -33 3 -35 -28 -45 -142 -45 -263 -4 -311 105 -41 93 -19 253 45 321 57 62
163 83 275 55z m482 -33 l0 -40 -90 0 -90 0 0 -65 0 -65 85 0 85 0 0 -40 0
-40 -85 0 -85 0 0 -105 0 -105 -45 0 -45 0 0 250 0 250 135 0 135 0 0 -40z
m440 17 c60 -32 83 -76 77 -150 -9 -98 -69 -152 -183 -164 l-54 -6 0 -78 0
-79 -45 0 -45 0 0 250 0 250 103 0 c89 0 110 -3 147 -23z"/>
<path d="M560 1641 l0 -71 44 0 c55 0 96 30 96 69 0 46 -21 64 -84 69 l-56 4
0 -71z"/>
<path d="M560 1425 l0 -75 44 0 c61 0 94 15 107 47 23 61 -22 103 -111 103
l-40 0 0 -75z"/>
<path d="M1070 1639 l0 -72 51 5 c55 6 74 19 84 60 11 42 -31 78 -90 78 l-45
0 0 -71z"/>
<path d="M1070 1425 l0 -77 55 4 c66 6 95 28 95 73 0 45 -29 67 -95 73 l-55 4
0 -77z"/>
<path d="M500 1165 c0 -27 21 -33 39 -12 8 10 7 17 -1 25 -20 20 -38 14 -38
-13z"/>
<path d="M500 1095 c0 -18 5 -25 20 -25 25 0 38 29 19 41 -25 15 -39 10 -39
-16z"/>
<path d="M1050 1165 c0 -27 1 -28 24 -19 28 11 13 44 -20 44 -2 0 -4 -11 -4
-25z"/>
<path d="M1050 1095 c0 -20 4 -26 18 -23 9 2 17 12 17 23 0 11 -8 21 -17 23
-14 3 -18 -3 -18 -23z"/>
<path d="M731 1136 c-10 -12 -8 -13 8 -9 12 3 18 9 15 14 -7 12 -10 11 -23 -5z"/>
<path d="M1275 1140 c-3 -5 3 -10 15 -10 12 0 18 5 15 10 -3 6 -10 10 -15 10
-5 0 -12 -4 -15 -10z"/>
<path d="M1715 1140 c-3 -5 3 -10 15 -10 12 0 18 5 15 10 -3 6 -10 10 -15 10
-5 0 -12 -4 -15 -10z"/>
<path d="M1550 806 l0 -96 46 0 c88 0 136 92 82 155 -17 19 -36 27 -75 32
l-53 6 0 -97z"/>
</g>
</svg>
